:SAMPLES-PER-SECOND 30
:FULLY-SPECIFIED
:DEGREES
463
root  -27.9389 40.1222 -5.19356 176.786 71.1882 173.879
RightUpLeg  -8.19753 -10.1298 -13.9231
RightLeg  21.4514 0.902105 0.178031
RightFoot  -5.27825 -0.183894 2.7866
RightToes  5.82063e-011 0 -3.6325e-017
Spine  7.20658 -3.22659 -10.0719
Spine1  2.99309 -5.45879 6.94802
HEad  -22.631 -10.8568 2.59236
LeftShoulder1  -0.230432 4.16864 -28.4831
LeftArm  -12.2518 11.0585 -32.9179
LeftForeArm  7.34416 -16.1504 -3.94823
LeftHand  0.000460864 7.01059 2.57063
RightShoulder  -0.71971 -5.67875 26.4336
RightArm  0.832376 -23.8117 37.0578
RightForeArm  0.97719 9.82811 1.57033
RightHand  -0.263443 3.96862 -3.51479
LeftUpLeg  -4.87582 9.67134 2.82135
LeftLeg  8.88619 19.8266 0.0639392
LeftFoot  -3.31074 0.15312 -1.90172
LeftToes  1.68253e-010 -3.2327e-011 -2.69673e-012
464
root  -28.2113 40.1563 -4.9102 174.936 74.8562 172.227
RightUpLeg  -5.78381 -11.9368 -15.2805
RightLeg  18.812 1.91136 0.499352
RightFoot  -5.55394 -0.196054 3.13735
RightToes  5.82063e-011 0 -3.6325e-017
Spine  7.58112 -3.20124 -9.91936
Spine1  2.59291 -5.51354 7.39427
HEad  -22.4005 -8.5192 2.39289
LeftShoulder1  -0.309201 4.38852 -28.7908
LeftArm  -11.2613 10.6931 -34.531
LeftForeArm  9.12352 -14.139 -4.28779
LeftHand  -0.0117411 7.40624 1.47665
RightShoulder  -0.721834 -5.68085 26.4991
RightArm  0.352262 -24.1191 37.6555
RightForeArm  2.35354 10.1772 1.42441
RightHand  -0.212438 3.6629 -2.97391
LeftUpLeg  -4.42886 9.95009 3.14114
LeftLeg  8.5029 23.0903 0.20543
LeftFoot  -2.49261 0.15992 -1.86891
LeftToes  1.68253e-010 -3.2327e-011 -2.69673e-012
465
root  -28.4405 40.1717 -4.57552 172.308 78.4414 169.775
RightUpLeg  -3.32069 -15.2659 -16.5218
RightLeg  15.4659 2.3896 0.596934
RightFoot  -5.69746 -0.236679 4.0018
RightToes  5.82063e-011 0 -3.6325e-017
Spine  7.92672 -3.15596 -9.51826
Spine1  2.27501 -5.48423 7.61508
HEad  -22.284 -6.00895 2.17002
LeftShoulder1  -0.361473 4.53363 -28.9379
LeftArm  -10.6775 10.457 -36.6156
LeftForeArm  11.7215 -13.1146 -4.62012
LeftHand  -0.00805576 7.93704 1.51624
RightShoulder  -0.762395 -5.78983 26.7144
RightArm  -0.38488 -24.0822 38.0662
RightForeArm  3.01659 10.9269 1.27473
RightHand  -0.144582 3.26865 -2.18245
LeftUpLeg  -4.07962 10.3871 3.68768
LeftLeg  8.47455 26.1461 0.398895
LeftFoot  -1.88174 0.20045 -2.28828
LeftToes  1.68253e-010 -3.2327e-011 -2.69673e-012
466
root  -28.6291 40.1993 -4.1779 168.152 82.1734 165.469
RightUpLeg  -1.54655 -17.5135 -17.2843
RightLeg  12.3143 -1.49112 -0.167136
RightFoot  -5.19054 -0.240069 3.82954
RightToes  5.82063e-011 0 -3.6325e-017
Spine  7.89156 -3.0881 -8.83143
Spine1  2.03543 -5.30537 7.56967
HEad  -22.3331 -3.53429 1.77541
LeftShoulder1  -0.378246 4.57621 -29.1202
LeftArm  -9.64816 10.5068 -38.4443
LeftForeArm  13.6696 -13.2405 -4.94685
LeftHand  -0.0262953 7.68188 0.77108
RightShoulder  -0.79085 -5.8714 26.7805
RightArm  -0.528535 -23.7696 38.6341
RightForeArm  3.41136 11.7692 1.4147
RightHand  -0.0995917 3.46119 -1.55363
LeftUpLeg  -3.78037 10.8857 4.38155
LeftLeg  8.05635 29.1854 0.322226
LeftFoot  -0.943613 0.21813 -2.33707
LeftToes  1.68253e-010 -3.2327e-011 -2.69673e-012
467
root  -28.8029 40.2247 -3.67193 151.664 85.8821 148.383
RightUpLeg  -0.925385 -17.7315 -17.1406
RightLeg  10.0705 -8.04835 -0.731152
RightFoot  -4.60032 -0.17238 2.39599
RightToes  5.82063e-011 0 -3.6325e-017
Spine  7.38157 -3.01471 -8.25424
Spine1  2.00929 -5.15415 7.80229
HEad  -22.5475 -1.4387 1.04764
LeftShoulder1  -0.370701 4.54922 -29.2374
LeftArm  -8.50879 10.6523 -40.408
LeftForeArm  14.6408 -13.9641 -5.15069
LeftHand  -0.0136684 7.05377 1.56132
RightShoulder  -0.782529 -5.8546 26.6609
RightArm  -0.644768 -23.1233 39.3335
RightForeArm  4.6633 12.8886 1.62845
RightHand  -0.0656677 3.62443 -1.10012
LeftUpLeg  -3.85518 11.4533 5.28372
LeftLeg  7.58182 32.2801 0.230162
LeftFoot  0.184046 0.253489 -2.52078
LeftToes  1.68253e-010 -3.2327e-011 -2.69673e-012
468
root  -28.9411 40.2214 -3.04764 91.1165 87.9487 87.2688
RightUpLeg  -0.693233 -16.519 -16.2676
RightLeg  8.17899 -12.7869 -0.748514
RightFoot  -4.15027 -0.190969 2.56606
RightToes  5.82063e-011 0 -3.6325e-017
Spine  7.05618 -2.81295 -7.97731
Spine1  1.77297 -4.90176 7.9598
HEad  -22.8022 1.16694 -0.410112
LeftShoulder1  -0.375208 4.54693 -29.5146
LeftArm  -6.81601 10.8936 -41.8141
LeftForeArm  14.3657 -15.419 -5.20642
LeftHand  -0.0111836 6.95044 1.8146
RightShoulder  -0.774209 -5.82598 26.7094
RightArm  -0.621538 -22.3483 39.6914
RightForeArm  7.17109 14.6538 1.98128
RightHand  -0.0383092 3.77068 -0.743948
LeftUpLeg  -3.58051 12.0553 6.30953
LeftLeg  6.87884 35.7365 0.134357
LeftFoot  1.41504 0.341675 -3.13128
LeftToes  1.68253e-010 -3.2327e-011 -2.69673e-012
469
root  -29.0824 40.191 -2.34199 23.0771 85.0891 18.5705
RightUpLeg  -0.766384 -14.4304 -14.7711
RightLeg  5.91775 -14.6936 -0.698034
RightFoot  -3.33929 -0.441122 5.93476
RightToes  5.82063e-011 0 -3.6325e-017
Spine  6.51292 -2.7901 -7.44598
Spine1  1.87981 -4.72847 7.5338
HEad  -23.5041 3.61551 -1.53424
LeftShoulder1  -0.376355 4.55532 -29.667
LeftArm  -5.46211 10.8116 -42.8638
LeftForeArm  14.1571 -16.813 -5.05142
LeftHand  -0.0148383 6.69566 1.75854
RightShoulder  -0.773869 -5.8282 26.6625
RightArm  -0.594517 -21.091 40.34
RightForeArm  10.1773 16.4922 2.39963
RightHand  -0.0106385 3.80414 -0.391304
LeftUpLeg  -3.16863 12.6252 7.32912
LeftLeg  5.93542 39.1965 -0.169779
LeftFoot  2.75097 0.474076 -3.96553
LeftToes  1.68253e-010 -3.2327e-011 -2.69673e-012
470
root  -29.1887 40.1846 -1.56181 15.6763 81.5045 10.8014
RightUpLeg  -0.637732 -12.9343 -13.1854
RightLeg  2.98792 -13.7752 -0.14527
RightFoot  -2.41238 -0.720506 9.10025
RightToes  5.82063e-011 0 -3.6325e-017
Spine  6.45652 -2.87886 -6.61083
Spine1  1.75872 -4.71864 7.35756
HEad  -24.0948 6.68173 -3.41037
LeftShoulder1  -0.38761 4.58448 -29.7091
LeftArm  -3.61785 10.7406 -43.3043
LeftForeArm  13.685 -18.4988 -4.80504
LeftHand  -0.027854 6.37859 0.564516
RightShoulder  -0.73864 -5.72443 26.617
RightArm  -0.200911 -20.0694 40.8604
RightForeArm  10.9175 18.5275 3.02885
RightHand  -0.0706595 4.07306 -1.14117
LeftUpLeg  -2.01502 13.2074 8.75854
LeftLeg  4.08976 42.0347 -1.06343
LeftFoot  4.42418 0.601027 -4.54665
LeftToes  1.68253e-010 -3.2327e-011 -2.69673e-012
471
root  -29.2562 40.2767 -0.75668 7.77759 78.5417 2.61957
RightUpLeg  -0.915799 -12.812 -11.2534
RightLeg  1.43574 -10.8796 1.42575
RightFoot  -1.43634 -0.609603 6.90632
RightToes  5.82063e-011 0 -3.6325e-017
Spine  6.91054 -2.98922 -4.51477
Spine1  1.35319 -4.72209 7.46133
HEad  -24.73 9.053 -5.36693
LeftShoulder1  -0.425958 4.68447 -29.9305
LeftArm  -2.42653 10.3418 -43.5648
LeftForeArm  15.1386 -19.9948 -4.45568
LeftHand  -0.0320399 5.49772 -0.426847
RightShoulder  -0.736909 -5.73471 26.3782
RightArm  -0.0928788 -19.2857 41.1306
RightForeArm  11.4957 20.7783 3.67321
RightHand  -0.0707542 4.20294 -1.13523
LeftUpLeg  -0.0810021 14.066 11.1336
LeftLeg  0.665846 44.0392 -3.12414
LeftFoot  6.47889 0.633018 -4.28467
LeftToes  1.68253e-010 -3.2327e-011 -2.69673e-012
472
root  -29.3177 40.2477 0.0964373 3.75305 75.4419 -1.57574
RightUpLeg  -1.6652 -11.8034 -9.13739
RightLeg  1.80465 -8.85408 1.6258
RightFoot  -2.50743 -0.585578 7.33406
RightToes  5.82063e-011 0 -3.6325e-017
Spine  7.3213 -2.86848 -2.46226
Spine1  0.968025 -4.36533 6.75536
HEad  -24.8395 11.2317 -6.82997
LeftShoulder1  -0.357769 4.50483 -29.5676
LeftArm  -1.8561 10.1349 -44.2407
LeftForeArm  16.6691 -21.3508 -4.18071
LeftHand  -0.028289 5.26318 0.493714
RightShoulder  -0.66222 -5.51599 26.2227
RightArm  0.372488 -18.6927 41.0795
RightForeArm  11.0702 22.5105 4.19799
RightHand  -0.0803233 3.92444 -1.27382
LeftUpLeg  0.676308 15.024 13.3719
LeftLeg  1.16401 45.0321 -2.53294
LeftFoot  6.80583 0.684301 -4.53751
LeftToes  1.68253e-010 -3.2327e-011 -2.69673e-012
473
root  -29.3473 40.2044 0.93299 2.23059 72.6989 -3.23798
RightUpLeg  -3.11333 -11.2169 -7.39751
RightLeg  4.00712 -6.77939 1.69131
RightFoot  -3.54577 -0.420076 5.793
RightToes  5.82063e-011 0 -3.6325e-017
Spine  7.58683 -2.67952 -0.395618
Spine1  0.665411 -3.83239 5.67638
HEad  -24.7371 12.8184 -7.30298
LeftShoulder1  -0.283465 4.31228 -28.919
LeftArm  -1.36114 10.0416 -44.7223
LeftForeArm  17.851 -23.0676 -4.07129
LeftHand  -0.0276095 5.39639 0.803712
RightShoulder  -0.628187 -5.39263 26.5481
RightArm  1.91126 -17.4435 40.5587
RightForeArm  10.1534 22.9289 4.35901
RightHand  -0.0601588 4.69228 -0.981304
LeftUpLeg  0.821701 15.3008 14.8452
LeftLeg  2.55555 40.3143 -1.20905
LeftFoot  4.49598 0.773224 -5.8227
LeftToes  1.68253e-010 -3.2327e-011 -2.69673e-012
474
root  -29.3226 40.1452 1.73695 1.74432 71.1267 -3.15637
RightUpLeg  -3.46204 -11.0915 -6.44897
RightLeg  6.36797 -5.40583 1.83451
RightFoot  -5.20865 -0.282007 4.60445
RightToes  5.82063e-011 0 -3.6325e-017
Spine  8.01649 -2.73935 0.376651
Spine1  1.00707 -3.84469 5.77105
HEad  -24.4438 14.679 -7.49887
LeftShoulder1  -0.276582 4.28775 -29.1222
LeftArm  -1.38653 9.36518 -44.4012
LeftForeArm  19.5767 -24.6966 -4.24398
LeftHand  -0.0287288 5.23084 0.324182
RightShoulder  -0.608697 -5.31685 26.8441
RightArm  4.08259 -15.0799 40.1403
RightForeArm  8.74975 21.951 4.21679
RightHand  -0.096706 4.63644 -1.41385
LeftUpLeg  0.609166 14.3671 15.0684
LeftLeg  3.40386 26.7595 -0.149964
LeftFoot  -0.661173 0.710384 -7.53279
LeftToes  1.68253e-010 -3.2327e-011 -2.69673e-012
